<mxfile host="Electron" agent="Mozilla/5.0 (Windows NT 10.0; Win64; x64) AppleWebKit/537.36 (KHTML, like Gecko) draw.io/28.2.5 Chrome/138.0.7204.251 Electron/37.6.1 Safari/537.36" version="28.2.5">
  <diagram name="PÃ¡gina-1" id="PlclgChjyC9SU6WtR5Jb">
    <mxGraphModel dx="403" dy="723" grid="1" gridSize="10" guides="1" tooltips="1" connect="1" arrows="1" fold="1" page="1" pageScale="1" pageWidth="827" pageHeight="1169" math="0" shadow="0">
      <root>
        <mxCell id="0" />
        <mxCell id="1" parent="0" />
        <mxCell id="mEIYC9cIbyuDqCzikmkp-1" value="FUNCIONARIO" style="whiteSpace=wrap;html=1;align=center;fillColor=#1ba1e2;fontColor=#ffffff;strokeColor=#006EAF;" vertex="1" parent="1">
          <mxGeometry x="360" y="120" width="100" height="40" as="geometry" />
        </mxCell>
        <mxCell id="mEIYC9cIbyuDqCzikmkp-2" value="&lt;u&gt;NUNCC&lt;/u&gt;" style="ellipse;whiteSpace=wrap;html=1;align=center;fillColor=#008a00;fontColor=#ffffff;strokeColor=#005700;" vertex="1" parent="1">
          <mxGeometry x="360" y="20" width="100" height="40" as="geometry" />
        </mxCell>
        <mxCell id="mEIYC9cIbyuDqCzikmkp-3" value="" style="endArrow=none;html=1;rounded=0;strokeColor=#FFFFFF;" edge="1" parent="1" source="mEIYC9cIbyuDqCzikmkp-2" target="mEIYC9cIbyuDqCzikmkp-1">
          <mxGeometry relative="1" as="geometry">
            <mxPoint x="340" y="69.5" as="sourcePoint" />
            <mxPoint x="410" y="190" as="targetPoint" />
          </mxGeometry>
        </mxCell>
        <mxCell id="mEIYC9cIbyuDqCzikmkp-9" value="Salario" style="ellipse;whiteSpace=wrap;html=1;align=center;fillColor=#60a917;fontColor=#ffffff;strokeColor=#2D7600;" vertex="1" parent="1">
          <mxGeometry x="230" y="20" width="100" height="40" as="geometry" />
        </mxCell>
        <mxCell id="mEIYC9cIbyuDqCzikmkp-10" value="" style="endArrow=none;html=1;rounded=0;strokeColor=light-dark(#990000,#FFFFFF);" edge="1" parent="1" source="mEIYC9cIbyuDqCzikmkp-9" target="mEIYC9cIbyuDqCzikmkp-1">
          <mxGeometry relative="1" as="geometry">
            <mxPoint x="220" y="140" as="sourcePoint" />
            <mxPoint x="380" y="140" as="targetPoint" />
          </mxGeometry>
        </mxCell>
        <mxCell id="mEIYC9cIbyuDqCzikmkp-11" value="Email?" style="ellipse;whiteSpace=wrap;html=1;align=center;fillColor=#60a917;fontColor=#ffffff;strokeColor=#2D7600;" vertex="1" parent="1">
          <mxGeometry x="210" y="90" width="100" height="40" as="geometry" />
        </mxCell>
        <mxCell id="mEIYC9cIbyuDqCzikmkp-13" value="" style="endArrow=none;html=1;rounded=0;strokeColor=#FFFFFF;" edge="1" parent="1" source="mEIYC9cIbyuDqCzikmkp-11" target="mEIYC9cIbyuDqCzikmkp-1">
          <mxGeometry relative="1" as="geometry">
            <mxPoint x="300" y="150" as="sourcePoint" />
            <mxPoint x="259.5" y="260" as="targetPoint" />
            <Array as="points">
              <mxPoint x="330" y="120" />
            </Array>
          </mxGeometry>
        </mxCell>
        <mxCell id="mEIYC9cIbyuDqCzikmkp-14" value="DEPARTAMENTO" style="whiteSpace=wrap;html=1;align=center;fillColor=#1ba1e2;fontColor=#ffffff;strokeColor=#006EAF;" vertex="1" parent="1">
          <mxGeometry x="370" y="410" width="110" height="40" as="geometry" />
        </mxCell>
        <mxCell id="mEIYC9cIbyuDqCzikmkp-15" value="Horasproj" style="ellipse;whiteSpace=wrap;html=1;align=center;fillColor=#60a917;fontColor=#ffffff;strokeColor=#2D7600;" vertex="1" parent="1">
          <mxGeometry x="470" y="10" width="100" height="40" as="geometry" />
        </mxCell>
        <mxCell id="mEIYC9cIbyuDqCzikmkp-17" value="Tabalha_para" style="shape=rhombus;perimeter=rhombusPerimeter;whiteSpace=wrap;html=1;align=center;" vertex="1" parent="1">
          <mxGeometry x="500" y="230" width="120" height="60" as="geometry" />
        </mxCell>
        <mxCell id="mEIYC9cIbyuDqCzikmkp-18" value="Gere" style="shape=rhombus;perimeter=rhombusPerimeter;whiteSpace=wrap;html=1;align=center;" vertex="1" parent="1">
          <mxGeometry x="200" y="230" width="120" height="60" as="geometry" />
        </mxCell>
        <mxCell id="mEIYC9cIbyuDqCzikmkp-19" value="" style="endArrow=none;html=1;rounded=0;exitX=0.86;exitY=0.925;exitDx=0;exitDy=0;exitPerimeter=0;" edge="1" parent="1" source="mEIYC9cIbyuDqCzikmkp-1" target="mEIYC9cIbyuDqCzikmkp-17">
          <mxGeometry relative="1" as="geometry">
            <mxPoint x="400" y="170" as="sourcePoint" />
            <mxPoint x="560" y="170" as="targetPoint" />
          </mxGeometry>
        </mxCell>
        <mxCell id="mEIYC9cIbyuDqCzikmkp-20" value="" style="endArrow=none;html=1;rounded=0;entryX=0.408;entryY=0.9;entryDx=0;entryDy=0;entryPerimeter=0;" edge="1" parent="1" source="mEIYC9cIbyuDqCzikmkp-14" target="mEIYC9cIbyuDqCzikmkp-17">
          <mxGeometry relative="1" as="geometry">
            <mxPoint x="450" y="300" as="sourcePoint" />
            <mxPoint x="610" y="300" as="targetPoint" />
          </mxGeometry>
        </mxCell>
        <mxCell id="mEIYC9cIbyuDqCzikmkp-21" value="" style="endArrow=none;html=1;rounded=0;" edge="1" parent="1" source="mEIYC9cIbyuDqCzikmkp-18" target="mEIYC9cIbyuDqCzikmkp-14">
          <mxGeometry relative="1" as="geometry">
            <mxPoint x="240" y="290" as="sourcePoint" />
            <mxPoint x="400" y="290" as="targetPoint" />
          </mxGeometry>
        </mxCell>
        <mxCell id="mEIYC9cIbyuDqCzikmkp-22" value="" style="endArrow=none;html=1;rounded=0;" edge="1" parent="1" source="mEIYC9cIbyuDqCzikmkp-18" target="mEIYC9cIbyuDqCzikmkp-1">
          <mxGeometry relative="1" as="geometry">
            <mxPoint x="340" y="190" as="sourcePoint" />
            <mxPoint x="410" y="170" as="targetPoint" />
          </mxGeometry>
        </mxCell>
        <mxCell id="mEIYC9cIbyuDqCzikmkp-24" value="&lt;u&gt;Nome&lt;/u&gt;" style="ellipse;whiteSpace=wrap;html=1;align=center;fillColor=#008a00;fontColor=#ffffff;strokeColor=#005700;" vertex="1" parent="1">
          <mxGeometry x="314" y="510" width="100" height="40" as="geometry" />
        </mxCell>
        <mxCell id="mEIYC9cIbyuDqCzikmkp-25" value="" style="endArrow=none;html=1;rounded=0;" edge="1" parent="1" source="mEIYC9cIbyuDqCzikmkp-14" target="mEIYC9cIbyuDqCzikmkp-24">
          <mxGeometry relative="1" as="geometry">
            <mxPoint x="360" y="490" as="sourcePoint" />
            <mxPoint x="520" y="490" as="targetPoint" />
          </mxGeometry>
        </mxCell>
        <mxCell id="mEIYC9cIbyuDqCzikmkp-26" value="Localizacao" style="ellipse;shape=doubleEllipse;margin=3;whiteSpace=wrap;html=1;align=center;" vertex="1" parent="1">
          <mxGeometry x="440" y="510" width="100" height="40" as="geometry" />
        </mxCell>
        <mxCell id="mEIYC9cIbyuDqCzikmkp-27" value="" style="endArrow=none;html=1;rounded=0;" edge="1" parent="1" source="mEIYC9cIbyuDqCzikmkp-14" target="mEIYC9cIbyuDqCzikmkp-26">
          <mxGeometry relative="1" as="geometry">
            <mxPoint x="470" y="460" as="sourcePoint" />
            <mxPoint x="630" y="460" as="targetPoint" />
          </mxGeometry>
        </mxCell>
        <mxCell id="mEIYC9cIbyuDqCzikmkp-28" value="Nome" style="ellipse;whiteSpace=wrap;html=1;align=center;fillColor=#60a917;fontColor=#ffffff;strokeColor=#2D7600;" vertex="1" parent="1">
          <mxGeometry x="520" y="60" width="100" height="40" as="geometry" />
        </mxCell>
        <mxCell id="mEIYC9cIbyuDqCzikmkp-29" value="DT_Nasc" style="ellipse;whiteSpace=wrap;html=1;align=center;fillColor=#60a917;fontColor=#ffffff;strokeColor=#2D7600;" vertex="1" parent="1">
          <mxGeometry x="520" y="120" width="100" height="40" as="geometry" />
        </mxCell>
        <mxCell id="mEIYC9cIbyuDqCzikmkp-30" value="" style="endArrow=none;html=1;rounded=0;exitX=1;exitY=0.25;exitDx=0;exitDy=0;" edge="1" parent="1" source="mEIYC9cIbyuDqCzikmkp-1" target="mEIYC9cIbyuDqCzikmkp-28">
          <mxGeometry relative="1" as="geometry">
            <mxPoint x="390" y="79.5" as="sourcePoint" />
            <mxPoint x="500" y="80" as="targetPoint" />
          </mxGeometry>
        </mxCell>
        <mxCell id="mEIYC9cIbyuDqCzikmkp-31" value="" style="endArrow=none;html=1;rounded=0;" edge="1" parent="1" source="mEIYC9cIbyuDqCzikmkp-1" target="mEIYC9cIbyuDqCzikmkp-29">
          <mxGeometry relative="1" as="geometry">
            <mxPoint x="470" y="120" as="sourcePoint" />
            <mxPoint x="630" y="120" as="targetPoint" />
          </mxGeometry>
        </mxCell>
        <mxCell id="mEIYC9cIbyuDqCzikmkp-32" value="" style="endArrow=none;html=1;rounded=0;exitX=0.75;exitY=0;exitDx=0;exitDy=0;" edge="1" parent="1" source="mEIYC9cIbyuDqCzikmkp-1" target="mEIYC9cIbyuDqCzikmkp-15">
          <mxGeometry relative="1" as="geometry">
            <mxPoint x="410" y="59" as="sourcePoint" />
            <mxPoint x="570" y="59" as="targetPoint" />
          </mxGeometry>
        </mxCell>
        <mxCell id="mEIYC9cIbyuDqCzikmkp-33" value="Supervisiona" style="shape=rhombus;perimeter=rhombusPerimeter;whiteSpace=wrap;html=1;align=center;" vertex="1" parent="1">
          <mxGeometry x="365" y="270" width="120" height="60" as="geometry" />
        </mxCell>
        <mxCell id="mEIYC9cIbyuDqCzikmkp-34" value="" style="endArrow=none;html=1;rounded=0;entryX=0.32;entryY=0.9;entryDx=0;entryDy=0;entryPerimeter=0;exitX=0;exitY=0;exitDx=0;exitDy=0;" edge="1" parent="1" source="mEIYC9cIbyuDqCzikmkp-33" target="mEIYC9cIbyuDqCzikmkp-1">
          <mxGeometry relative="1" as="geometry">
            <mxPoint x="370" y="210" as="sourcePoint" />
            <mxPoint x="530" y="190" as="targetPoint" />
          </mxGeometry>
        </mxCell>
        <mxCell id="mEIYC9cIbyuDqCzikmkp-36" value="" style="endArrow=none;html=1;rounded=0;" edge="1" parent="1" target="mEIYC9cIbyuDqCzikmkp-33">
          <mxGeometry relative="1" as="geometry">
            <mxPoint x="440" y="160" as="sourcePoint" />
            <mxPoint x="440" y="270" as="targetPoint" />
          </mxGeometry>
        </mxCell>
        <mxCell id="mEIYC9cIbyuDqCzikmkp-37" value="Rua" style="ellipse;whiteSpace=wrap;html=1;align=center;fillColor=#60a917;fontColor=#ffffff;strokeColor=#2D7600;" vertex="1" parent="1">
          <mxGeometry x="510" y="410" width="100" height="40" as="geometry" />
        </mxCell>
        <mxCell id="mEIYC9cIbyuDqCzikmkp-38" value="Num" style="ellipse;whiteSpace=wrap;html=1;align=center;fillColor=#60a917;fontColor=#ffffff;strokeColor=#2D7600;" vertex="1" parent="1">
          <mxGeometry x="560" y="470" width="100" height="40" as="geometry" />
        </mxCell>
        <mxCell id="mEIYC9cIbyuDqCzikmkp-39" value="Andar?" style="ellipse;whiteSpace=wrap;html=1;align=center;fillColor=#60a917;fontColor=#ffffff;strokeColor=#2D7600;" vertex="1" parent="1">
          <mxGeometry x="560" y="544.5" width="100" height="40" as="geometry" />
        </mxCell>
        <mxCell id="mEIYC9cIbyuDqCzikmkp-40" value="CodPostal" style="ellipse;whiteSpace=wrap;html=1;align=center;fillColor=#60a917;fontColor=#ffffff;strokeColor=#2D7600;" vertex="1" parent="1">
          <mxGeometry x="510" y="610" width="100" height="40" as="geometry" />
        </mxCell>
        <mxCell id="mEIYC9cIbyuDqCzikmkp-41" style="edgeStyle=orthogonalEdgeStyle;rounded=0;orthogonalLoop=1;jettySize=auto;html=1;exitX=0.5;exitY=1;exitDx=0;exitDy=0;" edge="1" parent="1" source="mEIYC9cIbyuDqCzikmkp-40" target="mEIYC9cIbyuDqCzikmkp-40">
          <mxGeometry relative="1" as="geometry" />
        </mxCell>
        <mxCell id="mEIYC9cIbyuDqCzikmkp-42" value="Localidade" style="ellipse;whiteSpace=wrap;html=1;align=center;fillColor=#60a917;fontColor=#ffffff;strokeColor=#2D7600;" vertex="1" parent="1">
          <mxGeometry x="370" y="610" width="100" height="40" as="geometry" />
        </mxCell>
        <mxCell id="mEIYC9cIbyuDqCzikmkp-43" value="" style="endArrow=none;html=1;rounded=0;exitX=0.66;exitY=0.075;exitDx=0;exitDy=0;exitPerimeter=0;" edge="1" parent="1" source="mEIYC9cIbyuDqCzikmkp-26" target="mEIYC9cIbyuDqCzikmkp-37">
          <mxGeometry relative="1" as="geometry">
            <mxPoint x="380" y="470" as="sourcePoint" />
            <mxPoint x="540" y="470" as="targetPoint" />
          </mxGeometry>
        </mxCell>
        <mxCell id="mEIYC9cIbyuDqCzikmkp-44" value="" style="endArrow=none;html=1;rounded=0;" edge="1" parent="1" source="mEIYC9cIbyuDqCzikmkp-26" target="mEIYC9cIbyuDqCzikmkp-38">
          <mxGeometry relative="1" as="geometry">
            <mxPoint x="440" y="570" as="sourcePoint" />
            <mxPoint x="600" y="570" as="targetPoint" />
          </mxGeometry>
        </mxCell>
        <mxCell id="mEIYC9cIbyuDqCzikmkp-47" value="" style="endArrow=none;html=1;rounded=0;" edge="1" parent="1" source="mEIYC9cIbyuDqCzikmkp-26" target="mEIYC9cIbyuDqCzikmkp-39">
          <mxGeometry relative="1" as="geometry">
            <mxPoint x="490" y="565" as="sourcePoint" />
            <mxPoint x="550" y="580" as="targetPoint" />
          </mxGeometry>
        </mxCell>
        <mxCell id="mEIYC9cIbyuDqCzikmkp-48" value="" style="endArrow=none;html=1;rounded=0;" edge="1" parent="1" source="mEIYC9cIbyuDqCzikmkp-42" target="mEIYC9cIbyuDqCzikmkp-26">
          <mxGeometry relative="1" as="geometry">
            <mxPoint x="390" y="580" as="sourcePoint" />
            <mxPoint x="550" y="580" as="targetPoint" />
          </mxGeometry>
        </mxCell>
        <mxCell id="mEIYC9cIbyuDqCzikmkp-49" value="" style="endArrow=none;html=1;rounded=0;" edge="1" parent="1" source="mEIYC9cIbyuDqCzikmkp-26" target="mEIYC9cIbyuDqCzikmkp-40">
          <mxGeometry relative="1" as="geometry">
            <mxPoint x="460" y="610" as="sourcePoint" />
            <mxPoint x="620" y="610" as="targetPoint" />
          </mxGeometry>
        </mxCell>
        <mxCell id="mEIYC9cIbyuDqCzikmkp-51" value="PROJETO" style="whiteSpace=wrap;html=1;align=center;fillColor=#1ba1e2;fontColor=#ffffff;strokeColor=#006EAF;" vertex="1" parent="1">
          <mxGeometry x="250" y="740" width="110" height="40" as="geometry" />
        </mxCell>
        <mxCell id="mEIYC9cIbyuDqCzikmkp-52" value="Data_incio" style="ellipse;whiteSpace=wrap;html=1;align=center;fillColor=#60a917;fontColor=#ffffff;strokeColor=#2D7600;" vertex="1" parent="1">
          <mxGeometry x="414" y="740" width="100" height="40" as="geometry" />
        </mxCell>
        <mxCell id="mEIYC9cIbyuDqCzikmkp-53" value="Data_fim" style="ellipse;whiteSpace=wrap;html=1;align=center;fillColor=#60a917;fontColor=#ffffff;strokeColor=#2D7600;" vertex="1" parent="1">
          <mxGeometry x="370" y="810" width="100" height="40" as="geometry" />
        </mxCell>
        <mxCell id="mEIYC9cIbyuDqCzikmkp-54" value="&lt;u&gt;Nome&lt;/u&gt;" style="ellipse;whiteSpace=wrap;html=1;align=center;fillColor=#60a917;fontColor=#ffffff;strokeColor=#2D7600;" vertex="1" parent="1">
          <mxGeometry x="350" y="680" width="100" height="40" as="geometry" />
        </mxCell>
        <mxCell id="mEIYC9cIbyuDqCzikmkp-56" value="" style="endArrow=none;html=1;rounded=0;exitX=0.664;exitY=-0.025;exitDx=0;exitDy=0;exitPerimeter=0;" edge="1" parent="1" source="mEIYC9cIbyuDqCzikmkp-51" target="mEIYC9cIbyuDqCzikmkp-54">
          <mxGeometry relative="1" as="geometry">
            <mxPoint x="250" y="670" as="sourcePoint" />
            <mxPoint x="410" y="670" as="targetPoint" />
          </mxGeometry>
        </mxCell>
        <mxCell id="mEIYC9cIbyuDqCzikmkp-57" value="" style="endArrow=none;html=1;rounded=0;" edge="1" parent="1" source="mEIYC9cIbyuDqCzikmkp-51" target="mEIYC9cIbyuDqCzikmkp-52">
          <mxGeometry relative="1" as="geometry">
            <mxPoint x="380" y="790" as="sourcePoint" />
            <mxPoint x="540" y="790" as="targetPoint" />
          </mxGeometry>
        </mxCell>
        <mxCell id="mEIYC9cIbyuDqCzikmkp-59" value="" style="endArrow=none;html=1;rounded=0;exitX=0.609;exitY=0.9;exitDx=0;exitDy=0;exitPerimeter=0;" edge="1" parent="1" source="mEIYC9cIbyuDqCzikmkp-51" target="mEIYC9cIbyuDqCzikmkp-53">
          <mxGeometry relative="1" as="geometry">
            <mxPoint x="240" y="820" as="sourcePoint" />
            <mxPoint x="400" y="820" as="targetPoint" />
          </mxGeometry>
        </mxCell>
        <mxCell id="mEIYC9cIbyuDqCzikmkp-61" value="Dirige" style="shape=rhombus;perimeter=rhombusPerimeter;whiteSpace=wrap;html=1;align=center;" vertex="1" parent="1">
          <mxGeometry x="60" y="610" width="120" height="60" as="geometry" />
        </mxCell>
        <mxCell id="mEIYC9cIbyuDqCzikmkp-64" value="" style="endArrow=none;html=1;rounded=0;" edge="1" parent="1">
          <mxGeometry relative="1" as="geometry">
            <mxPoint x="350" y="530" as="sourcePoint" />
            <mxPoint x="510" y="530" as="targetPoint" />
          </mxGeometry>
        </mxCell>
        <mxCell id="mEIYC9cIbyuDqCzikmkp-65" value="" style="endArrow=none;html=1;rounded=0;strokeColor=#FFFFFF;" edge="1" parent="1" source="mEIYC9cIbyuDqCzikmkp-61" target="mEIYC9cIbyuDqCzikmkp-1">
          <mxGeometry relative="1" as="geometry">
            <mxPoint x="100" y="430" as="sourcePoint" />
            <mxPoint x="100" y="160" as="targetPoint" />
            <Array as="points">
              <mxPoint x="130" y="160" />
            </Array>
          </mxGeometry>
        </mxCell>
        <mxCell id="mEIYC9cIbyuDqCzikmkp-66" value="" style="endArrow=none;html=1;rounded=0;strokeColor=#666600;" edge="1" parent="1" source="mEIYC9cIbyuDqCzikmkp-51" target="mEIYC9cIbyuDqCzikmkp-61">
          <mxGeometry relative="1" as="geometry">
            <mxPoint x="110" y="710" as="sourcePoint" />
            <mxPoint x="270" y="710" as="targetPoint" />
          </mxGeometry>
        </mxCell>
        <mxCell id="mEIYC9cIbyuDqCzikmkp-67" value="(1,1)" style="text;html=1;align=center;verticalAlign=middle;resizable=0;points=[];autosize=1;strokeColor=none;fillColor=none;" vertex="1" parent="1">
          <mxGeometry x="480" y="168" width="50" height="30" as="geometry" />
        </mxCell>
        <mxCell id="mEIYC9cIbyuDqCzikmkp-68" value="(1,N)" style="text;html=1;align=center;verticalAlign=middle;resizable=0;points=[];autosize=1;strokeColor=none;fillColor=none;" vertex="1" parent="1">
          <mxGeometry x="500" y="330" width="50" height="30" as="geometry" />
        </mxCell>
        <mxCell id="mEIYC9cIbyuDqCzikmkp-69" value="(0,1)" style="text;html=1;align=center;verticalAlign=middle;resizable=0;points=[];autosize=1;strokeColor=none;fillColor=none;" vertex="1" parent="1">
          <mxGeometry x="275" y="178" width="50" height="30" as="geometry" />
        </mxCell>
        <mxCell id="mEIYC9cIbyuDqCzikmkp-70" value="(1,1)" style="text;html=1;align=center;verticalAlign=middle;resizable=0;points=[];autosize=1;strokeColor=none;fillColor=none;" vertex="1" parent="1">
          <mxGeometry x="285" y="328" width="50" height="30" as="geometry" />
        </mxCell>
        <mxCell id="mEIYC9cIbyuDqCzikmkp-71" value="Controla" style="shape=rhombus;perimeter=rhombusPerimeter;whiteSpace=wrap;html=1;align=center;" vertex="1" parent="1">
          <mxGeometry x="155" y="460" width="120" height="60" as="geometry" />
        </mxCell>
        <mxCell id="mEIYC9cIbyuDqCzikmkp-72" value="" style="endArrow=none;html=1;rounded=0;exitX=1;exitY=0;exitDx=0;exitDy=0;" edge="1" parent="1" source="mEIYC9cIbyuDqCzikmkp-71" target="mEIYC9cIbyuDqCzikmkp-14">
          <mxGeometry relative="1" as="geometry">
            <mxPoint x="180" y="420" as="sourcePoint" />
            <mxPoint x="340" y="420" as="targetPoint" />
          </mxGeometry>
        </mxCell>
        <mxCell id="mEIYC9cIbyuDqCzikmkp-73" value="" style="endArrow=none;html=1;rounded=0;entryX=0.436;entryY=-0.025;entryDx=0;entryDy=0;entryPerimeter=0;" edge="1" parent="1" source="mEIYC9cIbyuDqCzikmkp-71" target="mEIYC9cIbyuDqCzikmkp-51">
          <mxGeometry relative="1" as="geometry">
            <mxPoint x="190" y="600" as="sourcePoint" />
            <mxPoint x="350" y="600" as="targetPoint" />
          </mxGeometry>
        </mxCell>
        <mxCell id="mEIYC9cIbyuDqCzikmkp-74" value="Trabalha_em" style="shape=rhombus;perimeter=rhombusPerimeter;whiteSpace=wrap;html=1;align=center;" vertex="1" parent="1">
          <mxGeometry x="80" y="525" width="120" height="60" as="geometry" />
        </mxCell>
        <mxCell id="mEIYC9cIbyuDqCzikmkp-75" value="" style="endArrow=none;html=1;rounded=0;exitX=0.675;exitY=0.833;exitDx=0;exitDy=0;exitPerimeter=0;entryX=0.25;entryY=0;entryDx=0;entryDy=0;" edge="1" parent="1" source="mEIYC9cIbyuDqCzikmkp-74" target="mEIYC9cIbyuDqCzikmkp-51">
          <mxGeometry relative="1" as="geometry">
            <mxPoint x="200" y="640" as="sourcePoint" />
            <mxPoint x="360" y="640" as="targetPoint" />
          </mxGeometry>
        </mxCell>
        <mxCell id="mEIYC9cIbyuDqCzikmkp-76" value="" style="endArrow=none;html=1;rounded=0;exitX=0.308;exitY=0.15;exitDx=0;exitDy=0;exitPerimeter=0;" edge="1" parent="1" source="mEIYC9cIbyuDqCzikmkp-71" target="mEIYC9cIbyuDqCzikmkp-1">
          <mxGeometry relative="1" as="geometry">
            <mxPoint x="200" y="490" as="sourcePoint" />
            <mxPoint x="360" y="530" as="targetPoint" />
            <Array as="points">
              <mxPoint x="170" y="210" />
            </Array>
          </mxGeometry>
        </mxCell>
        <mxCell id="mEIYC9cIbyuDqCzikmkp-77" value="Horas" style="ellipse;whiteSpace=wrap;html=1;align=center;" vertex="1" parent="1">
          <mxGeometry x="10" y="450" width="100" height="40" as="geometry" />
        </mxCell>
        <mxCell id="mEIYC9cIbyuDqCzikmkp-78" value="" style="endArrow=none;html=1;rounded=0;entryX=0.183;entryY=0.267;entryDx=0;entryDy=0;entryPerimeter=0;" edge="1" parent="1" source="mEIYC9cIbyuDqCzikmkp-77" target="mEIYC9cIbyuDqCzikmkp-74">
          <mxGeometry relative="1" as="geometry">
            <mxPoint x="10" y="520" as="sourcePoint" />
            <mxPoint x="170" y="520" as="targetPoint" />
          </mxGeometry>
        </mxCell>
        <mxCell id="mEIYC9cIbyuDqCzikmkp-79" value="(0,N)" style="text;html=1;align=center;verticalAlign=middle;resizable=0;points=[];autosize=1;strokeColor=none;fillColor=none;" vertex="1" parent="1">
          <mxGeometry x="180" y="380" width="50" height="30" as="geometry" />
        </mxCell>
        <mxCell id="mEIYC9cIbyuDqCzikmkp-80" value="(1,1)" style="text;html=1;align=center;verticalAlign=middle;resizable=0;points=[];autosize=1;strokeColor=none;fillColor=none;" vertex="1" parent="1">
          <mxGeometry x="250" y="585" width="50" height="30" as="geometry" />
        </mxCell>
        <mxCell id="mEIYC9cIbyuDqCzikmkp-81" value="(0,N)" style="text;html=1;align=center;verticalAlign=middle;resizable=0;points=[];autosize=1;strokeColor=none;fillColor=none;" vertex="1" parent="1">
          <mxGeometry x="75" y="268" width="50" height="30" as="geometry" />
        </mxCell>
      </root>
    </mxGraphModel>
  </diagram>
</mxfile>
